<?xml version="1.0" encoding="UTF-8" ?>
<!DOCTYPE svg PUBLIC "-//W3C//DTD SVG 1.1//EN" "http://www.w3.org/Graphics/SVG/1.1/DTD/svg11.dtd">
<svg width="125pt" height="125pt" viewBox="0 0 140 140" version="1.1" xmlns="http://www.w3.org/2000/svg">
<path fill="#ffffff" d=" M 0.00 0.00 L 140.00 0.00 L 140.00 140.00 L 0.00 140.00 L 0.00 0.00 Z" />
<path fill="#5c5853" d=" M 86.69 37.70 C 90.39 30.85 99.33 27.56 106.58 30.46 C 113.36 32.89 117.57 39.99 117.44 47.06 C 115.99 53.58 111.42 59.02 105.14 61.37 C 100.54 61.84 95.76 61.67 91.78 59.05 C 91.67 59.58 91.46 60.64 91.35 61.17 C 90.08 61.70 88.81 62.19 87.53 62.67 C 84.21 67.36 79.60 70.90 75.77 75.14 C 78.08 75.15 80.39 75.15 82.70 75.17 C 84.90 81.56 87.59 87.79 89.21 94.37 C 90.58 87.99 91.67 81.56 92.86 75.15 C 97.44 75.15 102.01 75.16 106.58 75.12 C 104.23 87.60 101.97 100.09 99.58 112.56 C 94.99 112.52 90.39 112.52 85.80 112.55 C 83.49 106.15 81.18 99.76 78.91 93.35 C 78.22 99.81 76.84 106.16 75.69 112.54 C 71.06 112.53 66.44 112.53 61.82 112.52 C 63.69 102.87 65.39 93.18 67.27 83.53 C 67.75 81.10 67.69 78.61 67.95 76.16 C 69.42 73.95 71.55 72.29 73.42 70.43 C 68.37 70.38 63.33 70.40 58.29 70.41 C 60.32 58.10 62.24 45.78 64.21 33.46 C 70.37 33.44 76.53 33.46 82.69 33.45 C 82.19 36.45 81.68 39.45 81.24 42.46 C 78.57 42.45 75.90 42.44 73.23 42.43 C 72.94 44.02 72.67 45.60 72.41 47.19 C 74.83 47.18 77.26 47.17 79.68 47.16 C 79.24 50.03 78.76 52.89 78.31 55.76 C 75.87 55.75 73.43 55.75 70.99 55.76 C 70.76 57.45 70.52 59.13 70.28 60.82 C 72.96 60.80 75.63 60.79 78.30 60.79 C 77.99 62.67 77.69 64.55 77.41 66.44 C 79.68 64.04 82.03 61.70 84.66 59.69 C 85.18 57.84 86.29 56.30 87.83 55.16 C 84.16 50.16 83.47 43.11 86.69 37.70 Z" />
<path fill="#ffffff" d=" M 86.38 44.99 C 86.01 38.16 91.75 32.43 98.13 31.02 C 97.77 31.52 97.04 32.51 96.68 33.01 C 96.46 35.62 95.78 38.35 96.76 40.89 C 97.86 44.03 99.82 46.99 99.60 50.45 C 98.46 45.05 95.09 38.82 88.66 39.28 C 87.16 41.74 86.98 44.63 86.75 47.43 C 87.70 45.80 88.31 42.64 90.92 43.41 C 93.67 44.46 97.46 47.93 95.33 50.99 C 97.29 52.40 96.33 54.46 95.79 56.35 C 96.84 55.18 98.94 52.85 99.99 51.68 C 97.26 54.12 98.75 57.21 100.27 59.51 C 102.92 57.73 103.99 54.47 101.64 51.57 C 102.88 53.19 104.20 54.75 105.59 56.24 C 105.29 55.02 104.97 53.80 104.63 52.59 C 105.04 52.25 105.85 51.57 106.26 51.24 C 103.85 47.93 108.28 43.43 111.75 43.44 C 112.60 44.01 114.30 45.16 115.15 45.73 C 114.64 43.12 113.58 38.86 109.98 39.62 C 105.03 40.78 103.21 46.06 101.69 50.28 C 101.60 46.18 104.57 42.88 105.31 38.96 C 105.60 36.25 104.65 33.63 104.15 31.01 C 108.09 32.72 112.20 34.92 114.01 39.07 C 118.29 46.84 113.36 57.55 104.77 59.58 C 95.80 62.53 85.39 54.47 86.38 44.99 Z" />
<path fill="#5c5853" d=" M 8.77 33.45 C 16.39 33.45 24.01 33.46 31.63 33.45 C 31.10 36.56 30.58 39.67 30.12 42.80 C 28.06 42.80 25.99 42.81 23.92 42.82 C 22.51 52.02 21.01 61.22 19.55 70.42 C 16.06 70.40 12.58 70.40 9.10 70.40 C 10.56 61.20 12.02 52.00 13.49 42.79 C 11.42 42.80 9.35 42.82 7.28 42.83 C 7.77 39.70 8.30 36.58 8.77 33.45 Z" />
<path fill="#5c5853" d=" M 34.91 33.47 C 38.41 33.45 41.91 33.45 45.41 33.45 C 44.65 37.89 43.94 42.33 43.23 46.77 C 44.64 46.79 46.05 46.80 47.47 46.81 C 48.18 42.35 48.86 37.89 49.58 33.44 C 53.04 33.45 56.50 33.45 59.97 33.48 C 58.03 45.78 55.98 58.07 54.11 70.39 C 50.61 70.40 47.11 70.40 43.62 70.41 C 44.46 65.58 45.25 60.74 45.90 55.88 C 44.53 55.88 43.15 55.88 41.78 55.88 C 41.02 60.73 40.25 65.58 39.46 70.42 C 35.99 70.40 32.53 70.40 29.06 70.40 C 31.00 58.09 33.06 45.80 34.91 33.47 Z" />
<path fill="#5c5853" d=" M 115.87 76.85 C 122.94 72.62 132.86 73.50 139.12 78.86 C 137.76 82.08 135.80 85.00 134.09 88.04 C 131.42 86.28 128.27 83.13 124.84 84.70 C 124.65 85.03 124.26 85.69 124.07 86.02 C 127.46 89.45 133.29 89.73 135.84 94.19 C 139.43 100.38 135.81 108.70 129.53 111.51 C 121.09 115.68 110.84 112.61 104.13 106.58 C 106.41 103.37 108.65 100.13 110.85 96.87 C 113.77 99.91 117.72 103.36 122.27 102.28 C 122.65 101.96 123.41 101.32 123.79 101.00 C 120.67 98.28 116.22 97.73 113.27 94.76 C 107.86 89.93 109.92 80.35 115.87 76.85 Z" />
<path fill="#5c5853" d=" M 7.33 75.12 C 11.97 75.16 16.61 75.15 21.25 75.14 C 19.61 83.77 17.97 92.39 16.42 101.02 C 20.24 100.85 24.08 100.87 27.91 100.88 C 27.30 104.76 26.55 108.61 25.90 112.49 C 17.59 112.59 9.28 112.48 0.97 112.55 C 0.96 107.45 2.24 102.50 3.12 97.51 C 4.54 90.05 5.85 82.57 7.33 75.12 Z" />
<path fill="#5c5853" d=" M 36.20 75.17 C 44.81 75.13 53.43 75.14 62.04 75.16 C 61.48 78.54 60.85 81.91 60.24 85.28 C 56.13 85.27 52.03 85.27 47.93 85.28 C 47.71 86.46 47.50 87.63 47.30 88.82 C 51.14 88.79 54.99 88.79 58.83 88.79 C 58.25 91.97 57.65 95.15 57.10 98.34 C 53.26 98.35 49.43 98.35 45.59 98.32 C 45.30 99.66 45.02 101.01 44.73 102.36 C 49.23 102.37 53.73 102.36 58.24 102.37 C 57.54 105.75 56.92 109.15 56.29 112.54 C 47.27 112.51 38.26 112.54 29.24 112.53 C 31.62 100.09 33.90 87.63 36.20 75.17 Z" />
</svg>
